<svg width="45" height="45" viewBox="0 0 45 45" fill="none" xmlns="http://www.w3.org/2000/svg">
<circle cx="22.5" cy="22.5" r="22" stroke="#FF6F61"/>
<path d="M20.0723 32.9014C21.0064 32.9014 21.7617 32.1477 21.7617 31.2119C21.7617 30.2769 21.0073 29.5225 20.0723 29.5225M20.0723 32.9014V32.0723M20.0723 32.9014V32.0723M20.0723 32.9014C19.1965 32.9012 18.4778 32.2387 18.3916 31.3848L18.3838 31.2119C18.3838 30.277 19.1374 29.5226 20.0723 29.5225M20.0723 32.0723C20.5172 32.0723 20.8845 31.7332 20.9287 31.2998L20.9326 31.2119C20.9326 30.7376 20.5469 30.3516 20.0723 30.3516M20.0723 32.0723C19.6275 32.0721 19.261 31.7331 19.2168 31.2998L19.2119 31.2119C19.2119 30.7377 19.5981 30.3517 20.0723 30.3516M20.0723 30.3516V29.5225M20.0723 30.3516V29.5225" fill="#FF6F61" stroke="#FF6F61" stroke-width="8"/>
<path d="M28.1055 32.9014C29.0404 32.9013 29.7949 32.1468 29.7949 31.2119C29.7949 30.336 29.1323 29.6175 28.2783 29.5312L28.1055 29.5225M28.1055 32.9014V32.0723M28.1055 32.9014V32.0723M28.1055 32.9014C27.2296 32.9014 26.5111 32.2388 26.4248 31.3848L26.416 31.2119C26.416 30.2765 27.1705 29.5225 28.1055 29.5225M28.1055 32.0723C28.5503 32.0722 28.9167 31.7332 28.9609 31.2998L28.9658 31.2119C28.9658 30.7674 28.6265 30.4007 28.1934 30.3564L28.1055 30.3516M28.1055 32.0723C27.6609 32.0723 27.2942 31.7332 27.25 31.2998L27.2451 31.2119C27.2451 30.7376 27.6312 30.3516 28.1055 30.3516M28.1055 30.3516V29.5225M28.1055 30.3516V29.5225" fill="#FF6F61" stroke="#FF6F61" stroke-width="8"/>
<mask id="path-4-inside-1_7_1250" fill="white">
<path d="M29.7982 27.1103H18.4059C17.2975 27.1103 16.3508 26.3557 16.1035 25.2752L13.739 14.9497C13.7078 14.8133 13.6136 14.6966 13.4867 14.6379L11.5254 13.7288C11.0714 13.5185 10.8738 12.9797 11.0841 12.5254C11.2944 12.0714 11.8336 11.8738 12.2876 12.0841L14.2488 12.9931C14.8808 13.2857 15.3511 13.8659 15.5063 14.545L17.8707 24.8713C17.928 25.1222 18.1481 25.2977 18.4059 25.2977H29.7982C30.0549 25.2977 30.2746 25.1233 30.3334 24.8731L32.1717 16.9639C32.2243 16.7391 32.1286 16.5755 32.0673 16.4983C32.0056 16.4207 31.8679 16.2909 31.6373 16.2909H18.2214C17.7206 16.2909 17.3149 15.8852 17.3149 15.3844C17.3149 14.8837 17.7206 14.4779 18.2214 14.4779H31.6373C32.3621 14.4779 33.0358 14.8032 33.4868 15.3706C33.9379 15.9381 34.1018 16.6684 33.9379 17.3743L32.0992 25.2839C31.8486 26.359 30.9026 27.1103 29.7982 27.1103Z"/>
</mask>
<path d="M29.7982 27.1103H18.4059C17.2975 27.1103 16.3508 26.3557 16.1035 25.2752L13.739 14.9497C13.7078 14.8133 13.6136 14.6966 13.4867 14.6379L11.5254 13.7288C11.0714 13.5185 10.8738 12.9797 11.0841 12.5254C11.2944 12.0714 11.8336 11.8738 12.2876 12.0841L14.2488 12.9931C14.8808 13.2857 15.3511 13.8659 15.5063 14.545L17.8707 24.8713C17.928 25.1222 18.1481 25.2977 18.4059 25.2977H29.7982C30.0549 25.2977 30.2746 25.1233 30.3334 24.8731L32.1717 16.9639C32.2243 16.7391 32.1286 16.5755 32.0673 16.4983C32.0056 16.4207 31.8679 16.2909 31.6373 16.2909H18.2214C17.7206 16.2909 17.3149 15.8852 17.3149 15.3844C17.3149 14.8837 17.7206 14.4779 18.2214 14.4779H31.6373C32.3621 14.4779 33.0358 14.8032 33.4868 15.3706C33.9379 15.9381 34.1018 16.6684 33.9379 17.3743L32.0992 25.2839C31.8486 26.359 30.9026 27.1103 29.7982 27.1103Z" fill="#FF6F61"/>
<path d="M16.1035 25.2752L23.9019 23.4905L23.9016 23.4895L16.1035 25.2752ZM13.739 14.9497L5.9404 16.7334L5.94086 16.7354L13.739 14.9497ZM13.4867 14.6379L10.1225 21.8961L10.1263 21.8979L13.4867 14.6379ZM11.5254 13.7288L14.8895 6.47055L14.8882 6.46992L11.5254 13.7288ZM11.0841 12.5254L3.8252 9.16264L3.82418 9.16485L11.0841 12.5254ZM12.2876 12.0841L15.6517 4.82583L15.6503 4.8252L12.2876 12.0841ZM14.2488 12.9931L10.8847 20.2514L10.8876 20.2528L14.2488 12.9931ZM15.5063 14.545L7.70731 16.3272L7.7081 16.3306L15.5063 14.545ZM17.8707 24.8713L25.67 23.0905L25.6689 23.0857L17.8707 24.8713ZM30.3334 24.8731L38.1216 26.7016L38.1236 26.6929L38.1257 26.6842L30.3334 24.8731ZM32.1717 16.9639L24.3819 15.1421L24.3794 15.1527L32.1717 16.9639ZM32.0673 16.4983L38.3343 11.5259L38.3313 11.5222L32.0673 16.4983ZM33.9379 17.3743L41.7301 19.1858L41.7307 19.1834L33.9379 17.3743ZM32.0992 25.2839L39.8904 27.0997L39.8914 27.0953L32.0992 25.2839ZM29.7982 19.1103H18.4059V35.1103H29.7982V19.1103ZM18.4059 19.1103C21.0283 19.1103 23.3169 20.9345 23.9019 23.4905L8.30509 27.0599C9.38463 31.777 13.5667 35.1103 18.4059 35.1103V19.1103ZM23.9016 23.4895L21.5372 13.164L5.94086 16.7354L8.30532 27.0609L23.9016 23.4895ZM21.5376 13.166C20.957 10.6272 19.2319 8.48168 16.847 7.37782L10.1263 21.8979C7.99523 20.9115 6.45871 18.9995 5.9404 16.7334L21.5376 13.166ZM16.8508 7.37957L14.8895 6.47055L8.16127 20.9871L10.1225 21.8961L16.8508 7.37957ZM14.8882 6.46992C18.4457 8.118 19.9878 12.335 18.3441 15.8859L3.82418 9.16485C1.75988 13.6244 3.69713 18.9191 8.16264 20.9878L14.8882 6.46992ZM18.343 15.8882C16.6951 19.4454 12.4776 20.9889 8.9248 19.343L15.6503 4.8252C11.1896 2.75875 5.89375 4.69743 3.8252 9.16264L18.343 15.8882ZM8.92344 19.3424L10.8847 20.2514L17.6129 5.73485L15.6517 4.82583L8.92344 19.3424ZM10.8876 20.2528C9.27351 19.5054 8.10412 18.0637 7.70731 16.3272L23.3053 12.7629C22.5981 9.66812 20.4881 7.06605 17.61 5.73349L10.8876 20.2528ZM7.7081 16.3306L10.0726 26.6569L25.6689 23.0857L23.3045 12.7594L7.7081 16.3306ZM10.0715 26.652C10.9604 30.5454 14.42 33.2977 18.4059 33.2977V17.2977C21.8763 17.2977 24.8956 19.6989 25.67 23.0905L10.0715 26.652ZM18.4059 33.2977H29.7982V17.2977H18.4059V33.2977ZM29.7982 33.2977C33.7776 33.2977 37.216 30.5588 38.1216 26.7016L22.5451 23.0445C23.3333 19.6878 26.3322 17.2977 29.7982 17.2977V33.2977ZM38.1257 26.6842L39.964 18.775L24.3794 15.1527L22.5411 23.0619L38.1257 26.6842ZM39.9615 18.7857C40.7848 15.2653 39.2117 12.6317 38.3343 11.5259L25.8003 21.4707C25.0455 20.5194 23.6637 18.2129 24.3819 15.1421L39.9615 18.7857ZM38.3313 11.5222C37.4426 10.4035 35.236 8.29091 31.6373 8.29091V24.2909C28.4997 24.2909 26.5687 22.4379 25.8032 21.4744L38.3313 11.5222ZM31.6373 8.29091H18.2214V24.2909H31.6373V8.29091ZM18.2214 8.29091C22.1389 8.29091 25.3149 11.4669 25.3149 15.3844H9.31489C9.31489 20.3034 13.3024 24.2909 18.2214 24.2909V8.29091ZM25.3149 15.3844C25.3149 19.302 22.1389 22.4779 18.2214 22.4779V6.47795C13.3024 6.47795 9.31489 10.4654 9.31489 15.3844H25.3149ZM18.2214 22.4779H31.6373V6.47795H18.2214V22.4779ZM31.6373 22.4779C29.9217 22.4779 28.2901 21.6895 27.2243 20.3487L39.7494 10.3926C37.7814 7.91687 34.8024 6.47795 31.6373 6.47795V22.4779ZM27.2243 20.3487C26.153 19.001 25.7585 17.2308 26.1451 15.5652L41.7307 19.1834C42.4451 16.1059 41.7228 12.8753 39.7494 10.3926L27.2243 20.3487ZM26.1457 15.5629L24.307 23.4725L39.8914 27.0953L41.7301 19.1858L26.1457 15.5629ZM24.308 23.4681C24.9013 20.9224 27.1829 19.1103 29.7982 19.1103V35.1103C34.6223 35.1103 38.796 31.7955 39.8904 27.0997L24.308 23.4681Z" fill="#FF6F61" mask="url(#path-4-inside-1_7_1250)"/>
</svg>
