<svg width="45" height="45" viewBox="0 0 45 45" fill="none" xmlns="http://www.w3.org/2000/svg">
<circle cx="22.5" cy="22.5" r="22" stroke="#98FF98"/>
<g clip-path="url(#clip0_7_1219)">
<path d="M33.425 20.959C33.4243 20.9585 33.4238 20.9578 33.4233 20.9572L24.0411 11.5754C23.6412 11.1753 23.1095 10.9551 22.5439 10.9551C21.9784 10.9551 21.4467 11.1753 21.0466 11.5754L11.6693 20.9525C11.6661 20.9557 11.6628 20.959 11.6598 20.9621C10.8386 21.7881 10.84 23.1282 11.6639 23.9521C12.0402 24.3287 12.5372 24.5466 13.0687 24.5696C13.0905 24.5717 13.1122 24.5728 13.1342 24.5728H13.5079V31.477C13.5079 32.8435 14.6198 33.9551 15.9862 33.9551H19.6568C20.029 33.9551 20.3306 33.6533 20.3306 33.2813V27.8682C20.3306 27.2447 20.8379 26.7376 21.4614 26.7376H23.6264C24.2499 26.7376 24.757 27.2447 24.757 27.8682V33.2813C24.757 33.6533 25.0587 33.9551 25.4309 33.9551H29.1015C30.4681 33.9551 31.5797 32.8435 31.5797 31.477V24.5728H31.9265C32.4918 24.5728 33.0235 24.3525 33.4238 23.9523C34.2485 23.1272 34.2489 21.7846 33.425 20.959ZM32.4708 22.9994C32.3253 23.1449 32.1319 23.2251 31.9265 23.2251H30.9059C30.5337 23.2251 30.2321 23.5267 30.2321 23.8989V31.477C30.2321 32.1003 29.7249 32.6075 29.1015 32.6075H26.1047V27.8682C26.1047 26.5018 24.993 25.3899 23.6264 25.3899H21.4614C20.0948 25.3899 18.983 26.5018 18.983 27.8682V32.6075H15.9862C15.3629 32.6075 14.8556 32.1003 14.8556 31.477V23.8989C14.8556 23.5267 14.5539 23.2251 14.1818 23.2251H13.1787C13.1682 23.2244 13.1579 23.2239 13.1472 23.2237C12.9464 23.2202 12.7581 23.1405 12.617 22.9993C12.317 22.6992 12.317 22.2108 12.617 21.9106C12.6172 21.9106 12.6172 21.9104 12.6174 21.9102L12.6179 21.9097L21.9998 12.5282C22.1451 12.3828 22.3383 12.3027 22.5439 12.3027C22.7494 12.3027 22.9426 12.3828 23.0881 12.5282L32.4678 21.9078C32.4692 21.9092 32.4708 21.9106 32.4722 21.912C32.7707 22.2126 32.7702 22.6999 32.4708 22.9994Z" fill="#98FF98"/>
</g>
<defs>
<clipPath id="clip0_7_1219">
<rect width="23" height="23" fill="white" transform="translate(11 11)"/>
</clipPath>
</defs>
</svg>
