<svg width="45" height="45" viewBox="0 0 45 45" fill="none" xmlns="http://www.w3.org/2000/svg">
<circle cx="22.5" cy="22.5" r="22" stroke="#98FF98"/>
<path d="M32.3121 14.7205H12.6879C11.7572 14.7205 11 15.4777 11 16.4084V28.5916C11 29.5224 11.7572 30.2796 12.6879 30.2796H32.3121C33.2428 30.2796 34 29.5224 34 28.5916V16.4084C34 15.4777 33.2428 14.7205 32.3121 14.7205ZM33.0095 28.5916C33.0095 28.9762 32.6966 29.2891 32.3121 29.2891H12.6879C12.3034 29.2891 11.9905 28.9762 11.9905 28.5916V16.4084C11.9905 16.0239 12.3034 15.711 12.6879 15.711H32.3121C32.6966 15.711 33.0095 16.0238 33.0095 16.4084V28.5916Z" fill="#98FF98"/>
<path d="M15.9174 24.8511H13.6374C13.3638 24.8511 13.1421 25.0728 13.1421 25.3463C13.1421 25.6199 13.3638 25.8416 13.6374 25.8416H15.9174C16.1909 25.8416 16.4126 25.6199 16.4126 25.3463C16.4126 25.0728 16.1909 24.8511 15.9174 24.8511Z" fill="#98FF98"/>
<path d="M20.3549 24.8511H18.0749C17.8013 24.8511 17.5796 25.0728 17.5796 25.3463C17.5796 25.6199 17.8013 25.8416 18.0749 25.8416H20.3549C20.6284 25.8416 20.8501 25.6199 20.8501 25.3463C20.8501 25.0728 20.6284 24.8511 20.3549 24.8511Z" fill="#98FF98"/>
<path d="M24.7929 24.8511H22.5128C22.2393 24.8511 22.0176 25.0728 22.0176 25.3463C22.0176 25.6199 22.2393 25.8416 22.5128 25.8416H24.7929C25.0664 25.8416 25.2881 25.6199 25.2881 25.3463C25.2881 25.0728 25.0664 24.8511 24.7929 24.8511Z" fill="#98FF98"/>
<path d="M29.2308 24.8511H26.9508C26.6773 24.8511 26.4556 25.0728 26.4556 25.3463C26.4556 25.6199 26.6773 25.8416 26.9508 25.8416H29.2308C29.5043 25.8416 29.7261 25.6199 29.7261 25.3463C29.7261 25.0728 29.5044 24.8511 29.2308 24.8511Z" fill="#98FF98"/>
<path d="M21.777 27.0535H13.6374C13.3638 27.0535 13.1421 27.2752 13.1421 27.5487C13.1421 27.8223 13.3638 28.044 13.6374 28.044H21.777C22.0506 28.044 22.2723 27.8223 22.2723 27.5487C22.2723 27.2752 22.0506 27.0535 21.777 27.0535Z" fill="#98FF98"/>
<path d="M16.6044 19.3882H13.6374C13.3638 19.3882 13.1421 19.6099 13.1421 19.8834V22.0286C13.1421 22.3022 13.3638 22.5239 13.6374 22.5239H16.6044C16.8779 22.5239 17.0996 22.3021 17.0996 22.0286V19.8834C17.0996 19.6099 16.8779 19.3882 16.6044 19.3882ZM16.1091 21.5333H14.1326V20.3787H16.1091L16.1091 21.5333Z" fill="#98FF98"/>
<path d="M31.3631 17.6162H25.9855C25.7119 17.6162 25.4902 17.8379 25.4902 18.1115C25.4902 18.385 25.712 18.6067 25.9855 18.6067H31.3631C31.6365 18.6067 31.8583 18.385 31.8583 18.1115C31.8583 17.8379 31.6366 17.6162 31.3631 17.6162Z" fill="#98FF98"/>
</svg>
