<svg width="194" height="194" viewBox="0 0 194 194" fill="none" xmlns="http://www.w3.org/2000/svg">
<path d="M97 0L110.209 43.4108L142.078 11.1108L133.6 55.6874L176.829 41.8977L148.606 77.4283L193.293 85.3079L151.791 103.653L187.697 131.397L142.423 128.353L161.323 169.606L122.649 145.871L120.214 191.181L97 152.193L73.7864 191.181L71.3505 145.871L32.6771 169.606L51.577 128.353L6.30342 131.397L42.2094 103.653L0.707237 85.3079L45.3936 77.4283L17.1706 41.8977L60.4003 55.6874L51.9219 11.1108L83.7915 43.4108L97 0Z" fill="#98FF98"/>
<path d="M55.96 105.76C55.024 105.76 54.166 105.526 53.386 105.058C52.6233 104.573 52.008 103.94 51.54 103.16C51.0893 102.363 50.864 101.487 50.864 100.534V99.338C50.864 99.2513 50.9073 99.208 50.994 99.208H53.906C53.9753 99.208 54.01 99.2513 54.01 99.338V100.534C54.01 101.106 54.2007 101.6 54.582 102.016C54.9633 102.415 55.4227 102.614 55.96 102.614C56.4973 102.614 56.9567 102.406 57.338 101.99C57.7193 101.574 57.91 101.089 57.91 100.534C57.91 99.8927 57.494 99.338 56.662 98.87C56.3847 98.714 55.9513 98.4713 55.362 98.142C54.7727 97.8127 54.218 97.5007 53.698 97.206C52.7447 96.6513 52.034 95.958 51.566 95.126C51.1153 94.2767 50.89 93.3233 50.89 92.266C50.89 91.2953 51.124 90.4287 51.592 89.666C52.06 88.886 52.6753 88.2707 53.438 87.82C54.218 87.3693 55.0587 87.144 55.96 87.144C56.8787 87.144 57.7193 87.378 58.482 87.846C59.262 88.2967 59.8773 88.912 60.328 89.692C60.796 90.4547 61.03 91.3127 61.03 92.266V94.398C61.03 94.4673 60.9953 94.502 60.926 94.502H58.014C57.9447 94.502 57.91 94.4673 57.91 94.398L57.884 92.266C57.884 91.6593 57.6933 91.1653 57.312 90.784C56.9307 90.4027 56.48 90.212 55.96 90.212C55.4227 90.212 54.9633 90.42 54.582 90.836C54.2007 91.2347 54.01 91.7113 54.01 92.266C54.01 92.838 54.1313 93.3147 54.374 93.696C54.6167 94.0773 55.0587 94.4413 55.7 94.788C55.7867 94.84 55.9513 94.9353 56.194 95.074C56.454 95.1953 56.7313 95.3427 57.026 95.516C57.3207 95.672 57.5807 95.8107 57.806 95.932C58.0487 96.0533 58.196 96.1313 58.248 96.166C59.1147 96.6513 59.7993 97.2493 60.302 97.96C60.8047 98.6533 61.056 99.5113 61.056 100.534C61.056 101.522 60.822 102.415 60.354 103.212C59.9033 103.992 59.288 104.616 58.508 105.084C57.7453 105.535 56.896 105.76 55.96 105.76ZM63.1682 105.5C63.0989 105.5 63.0642 105.457 63.0642 105.37L63.0902 87.508C63.0902 87.4387 63.1336 87.404 63.2202 87.404H66.1062C66.1929 87.404 66.2362 87.4387 66.2362 87.508L66.2102 94.58H70.1102V87.508C70.1102 87.4387 70.1449 87.404 70.2142 87.404H73.1002C73.1869 87.404 73.2302 87.4387 73.2302 87.508L73.2822 105.37C73.2822 105.457 73.2389 105.5 73.1522 105.5H70.2402C70.1536 105.5 70.1102 105.457 70.1102 105.37V97.726H66.2102V105.37C66.2102 105.457 66.1756 105.5 66.1062 105.5H63.1682ZM80.4141 105.76C79.4781 105.76 78.6201 105.526 77.8401 105.058C77.0774 104.573 76.4621 103.94 75.9941 103.16C75.5261 102.363 75.2921 101.487 75.2921 100.534L75.3181 92.292C75.3181 91.3387 75.5434 90.472 75.9941 89.692C76.4621 88.912 77.0861 88.288 77.8661 87.82C78.6461 87.352 79.4954 87.118 80.4141 87.118C81.3501 87.118 82.1994 87.352 82.9621 87.82C83.7247 88.288 84.3314 88.912 84.7821 89.692C85.2501 90.472 85.4841 91.3387 85.4841 92.292L85.5101 100.534C85.5101 101.487 85.2761 102.363 84.8081 103.16C84.3574 103.94 83.7421 104.573 82.9621 105.058C82.1994 105.526 81.3501 105.76 80.4141 105.76ZM80.4141 102.614C80.9341 102.614 81.3847 102.406 81.7661 101.99C82.1647 101.557 82.3641 101.071 82.3641 100.534L82.3381 92.292C82.3381 91.72 82.1561 91.2347 81.7921 90.836C81.4281 90.4373 80.9687 90.238 80.4141 90.238C79.8767 90.238 79.4174 90.4373 79.0361 90.836C78.6547 91.2173 78.4641 91.7027 78.4641 92.292V100.534C78.4641 101.106 78.6547 101.6 79.0361 102.016C79.4174 102.415 79.8767 102.614 80.4141 102.614ZM87.8169 105.5C87.7302 105.5 87.6869 105.457 87.6869 105.37L87.7389 87.508C87.7389 87.4387 87.7735 87.404 87.8429 87.404H92.8349C94.4295 87.404 95.6862 87.8893 96.6049 88.86C97.5409 89.8307 98.0089 91.148 98.0089 92.812C98.0089 94.0427 97.7662 95.1087 97.2809 96.01C96.7955 96.9113 96.1629 97.6047 95.3829 98.09C94.6029 98.5753 93.7535 98.818 92.8349 98.818H90.8589V105.37C90.8589 105.457 90.8155 105.5 90.7289 105.5H87.8169ZM90.8589 95.672H92.8349C93.3895 95.672 93.8662 95.412 94.2649 94.892C94.6809 94.3547 94.8889 93.6613 94.8889 92.812C94.8889 92.136 94.7069 91.5813 94.3429 91.148C93.9789 90.7147 93.4762 90.498 92.8349 90.498L90.8589 90.524V95.672ZM104.266 105.5C104.128 105.5 104.058 105.439 104.058 105.318L104.032 87.612C104.032 87.4733 104.102 87.404 104.24 87.404H106.58L110.974 97.648L110.844 87.612C110.844 87.4733 110.922 87.404 111.078 87.404H113.652C113.756 87.404 113.808 87.4733 113.808 87.612L113.834 105.344C113.834 105.448 113.791 105.5 113.704 105.5H111.416L106.918 95.932L107.1 105.292C107.1 105.431 107.022 105.5 106.866 105.5H104.266ZM121.103 105.76C120.167 105.76 119.309 105.526 118.529 105.058C117.766 104.573 117.151 103.94 116.683 103.16C116.215 102.363 115.981 101.487 115.981 100.534L116.007 92.292C116.007 91.3387 116.232 90.472 116.683 89.692C117.151 88.912 117.775 88.288 118.555 87.82C119.335 87.352 120.184 87.118 121.103 87.118C122.039 87.118 122.888 87.352 123.651 87.82C124.413 88.288 125.02 88.912 125.471 89.692C125.939 90.472 126.173 91.3387 126.173 92.292L126.199 100.534C126.199 101.487 125.965 102.363 125.497 103.16C125.046 103.94 124.431 104.573 123.651 105.058C122.888 105.526 122.039 105.76 121.103 105.76ZM121.103 102.614C121.623 102.614 122.073 102.406 122.455 101.99C122.853 101.557 123.053 101.071 123.053 100.534L123.027 92.292C123.027 91.72 122.845 91.2347 122.481 90.836C122.117 90.4373 121.657 90.238 121.103 90.238C120.565 90.238 120.106 90.4373 119.725 90.836C119.343 91.2173 119.153 91.7027 119.153 92.292V100.534C119.153 101.106 119.343 101.6 119.725 102.016C120.106 102.415 120.565 102.614 121.103 102.614ZM130.311 105.5C130.241 105.5 130.198 105.457 130.181 105.37L127.113 87.508C127.095 87.4387 127.121 87.404 127.191 87.404H130.103C130.172 87.404 130.215 87.4387 130.233 87.508L131.897 99.26L133.613 87.508C133.63 87.4387 133.682 87.404 133.769 87.404H136.109C136.178 87.404 136.221 87.4387 136.239 87.508L137.929 99.26L139.619 87.508C139.636 87.4387 139.679 87.404 139.749 87.404H142.635C142.721 87.404 142.756 87.4387 142.739 87.508L139.645 105.37C139.627 105.405 139.601 105.439 139.567 105.474C139.532 105.491 139.515 105.5 139.515 105.5H136.369C136.317 105.5 136.273 105.457 136.239 105.37L134.913 96.036L133.587 105.37C133.569 105.457 133.526 105.5 133.457 105.5H130.311Z" fill="black"/>
</svg>
